<svg width="120" height="41" viewBox="0 0 120 41" fill="none" xmlns="http://www.w3.org/2000/svg">
<g clip-path="url(#clip0)">
<path d="M116.262 24.7257L119.591 26.9615C118.511 28.5649 115.927 31.3156 111.459 31.3156C105.911 31.3156 101.779 26.991 101.779 21.4896C101.779 15.6352 105.954 11.6636 110.992 11.6636C116.058 11.6636 118.54 15.7234 119.343 17.9151L119.781 19.0331L106.728 24.4756C107.721 26.4467 109.269 27.447 111.459 27.447C113.649 27.447 115.167 26.3585 116.262 24.7257ZM106.027 21.1807L114.744 17.5327C114.262 16.3118 112.831 15.4439 111.123 15.4439C108.948 15.4439 105.925 17.3856 106.027 21.1807Z" fill="#FF302F"/>
<path d="M72.4465 21.4896C72.4465 27.1528 68.0663 31.3156 62.6934 31.3156C57.3204 31.3156 52.9403 27.1528 52.9403 21.4896C52.9403 15.797 57.3204 11.6636 62.6934 11.6636C68.0663 11.6636 72.4465 15.7823 72.4465 21.4896ZM68.1685 21.4896C68.1685 17.9593 65.6281 15.5322 62.6788 15.5322C59.7295 15.5322 57.189 17.9593 57.189 21.4896C57.189 24.9905 59.7295 27.447 62.6788 27.447C65.6427 27.447 68.1685 24.9758 68.1685 21.4896Z" fill="#FFBA40"/>
<path d="M88.8574 12.4285H92.9163V29.9035C92.9163 37.1553 88.6676 40.1414 83.645 40.1414C78.9145 40.1414 76.0674 36.9347 75.0016 34.3311L78.7247 32.7719C79.3963 34.3752 81.017 36.2728 83.645 36.2728C86.8717 36.2728 88.8574 34.2576 88.8574 30.4919V29.0798H88.7114C87.7478 30.2565 85.9081 31.3156 83.572 31.3156C78.6955 31.3156 74.2278 27.0352 74.2278 21.5191C74.2278 15.9735 78.6955 11.6489 83.572 11.6489C85.8935 11.6489 87.7478 12.6933 88.7114 13.8407H88.8574V12.4285ZM89.1494 21.5191C89.1494 18.0476 86.8571 15.5175 83.9371 15.5175C80.9878 15.5175 78.5057 18.0476 78.5057 21.5191C78.5057 24.9464 80.9878 27.4323 83.9371 27.4323C86.8571 27.447 89.1494 24.9464 89.1494 21.5191Z" fill="#3686F7"/>
<path d="M51.1445 21.4455C51.1445 27.1086 46.7643 31.2715 41.3914 31.2715C36.0184 31.2715 31.6383 27.0939 31.6383 21.4455C31.6383 15.7528 36.0184 11.6047 41.3914 11.6047C46.7643 11.6047 51.1445 15.7528 51.1445 21.4455ZM46.8811 21.4455C46.8811 17.9151 44.3407 15.4881 41.3914 15.4881C38.4421 15.4881 35.9016 17.9151 35.9016 21.4455C35.9016 24.9463 38.4421 27.4028 41.3914 27.4028C44.3407 27.4028 46.8811 24.9463 46.8811 21.4455Z" fill="#FF302F"/>
<path d="M95.486 1.64636H99.6909V30.4183H95.486V1.64636Z" fill="#20B15A"/>
<path d="M15.6071 27.0056C9.4895 27.0056 4.70057 22.0338 4.70057 15.8705C4.70057 9.70716 9.4895 4.73532 15.6071 4.73532C18.9068 4.73532 21.3158 6.04448 23.0971 7.72137L26.0318 4.76474C23.5497 2.36708 20.2354 0.543091 15.6071 0.543091C7.22644 0.543091 0.174438 7.42718 0.174438 15.8705C0.174438 24.3138 7.22644 31.1979 15.6071 31.1979C20.1332 31.1979 23.5497 29.6975 26.2216 26.9027C28.9665 24.1373 29.8133 20.2539 29.8133 17.1061C29.8133 16.1205 29.6965 15.1056 29.5651 14.3554H15.6071V18.4447H25.55C25.258 21.0041 24.4549 22.7546 23.2723 23.946C21.8415 25.4023 19.5784 27.0056 15.6071 27.0056Z" fill="#3686F7"/>
</g>
<defs>
<clipPath id="clip0">
<rect width="120" height="39.6694" fill="white" transform="translate(0 0.481934)"/>
</clipPath>
</defs>
</svg>
