<svg width="146" height="47" viewBox="0 0 146 47" fill="none" xmlns="http://www.w3.org/2000/svg">
<g clip-path="url(#clip0)">
<path d="M31.3149 9.94998C31.2911 9.73592 31.1006 9.64079 30.9577 9.64079C30.8149 9.64079 27.6953 9.40295 27.6953 9.40295C27.6953 9.40295 25.5282 7.23861 25.2663 7.02456C25.0281 6.78672 24.5757 6.85807 24.3851 6.90564C24.3613 6.90564 23.9089 7.04834 23.1706 7.28618C22.4324 5.16941 21.1703 3.24291 18.908 3.24291H18.6937C18.0745 2.43425 17.2648 2.05371 16.5981 2.05371C11.359 2.05371 8.83478 8.5943 8.04893 11.9241C6.00095 12.5662 4.54831 12.9943 4.38161 13.0657C3.23855 13.4224 3.21474 13.4462 3.07186 14.5165C2.95279 15.3252 -0.0239258 38.3242 -0.0239258 38.3242L23.1468 42.6529L35.7205 39.9415C35.7443 39.894 31.3388 10.164 31.3149 9.94998ZM21.8847 7.61915C21.3132 7.78564 20.6226 7.9997 19.932 8.23754V7.80942C19.932 6.52509 19.7653 5.4786 19.4557 4.64616C20.6464 4.78886 21.3846 6.09698 21.8847 7.61915ZM18.0031 4.90779C18.3126 5.71644 18.527 6.85807 18.527 8.42781V8.66565C17.241 9.06997 15.8836 9.4743 14.4786 9.92619C15.2645 6.92942 16.7647 5.45482 18.0031 4.90779ZM16.479 3.43318C16.7171 3.43318 16.9553 3.52831 17.1458 3.67102C15.455 4.45589 13.669 6.42995 12.9307 10.4257C11.8115 10.7824 10.7399 11.0916 9.71589 11.4246C10.5732 8.38024 12.7164 3.43318 16.479 3.43318Z" fill="#95BF47"/>
<path d="M18.9081 16.5381L17.384 21.1284C17.384 21.1284 16.0028 20.3911 14.3597 20.3911C11.9069 20.3911 11.7878 21.9371 11.7878 22.3176C11.7878 24.4106 17.265 25.2193 17.265 30.1426C17.265 34.0193 14.8121 36.5167 11.502 36.5167C7.50133 36.5167 5.50098 34.0431 5.50098 34.0431L6.57259 30.5231C6.57259 30.5231 8.6682 32.3307 10.4304 32.3307C11.5973 32.3307 12.0736 31.4269 12.0736 30.7609C12.0736 28.0258 7.59658 27.9069 7.59658 23.3879C7.59658 19.6063 10.3113 15.9435 15.8123 15.9435C17.8603 15.9198 18.9081 16.5381 18.9081 16.5381Z" fill="white"/>
<path d="M50.3899 25.1717C49.1277 24.5058 48.4848 23.9112 48.4848 23.1263C48.4848 22.1274 49.3897 21.4852 50.7947 21.4852C52.4378 21.4852 53.8905 22.1512 53.8905 22.1512L55.0335 18.6549C55.0335 18.6549 53.9857 17.8463 50.8899 17.8463C46.5797 17.8463 43.5791 20.3198 43.5791 23.7922C43.5791 25.7663 44.9841 27.2647 46.8416 28.335C48.3657 29.1674 48.8896 29.7858 48.8896 30.6896C48.8896 31.6172 48.1276 32.3783 46.7225 32.3783C44.6508 32.3783 42.6742 31.308 42.6742 31.308L41.4597 34.8042C41.4597 34.8042 43.2696 36.0172 46.3177 36.0172C50.7471 36.0172 53.9619 33.8291 53.9619 29.9047C53.9143 27.7642 52.3188 26.2896 50.3899 25.1717ZM68.0596 17.7987C65.8688 17.7987 64.1542 18.8452 62.8444 20.4149L62.7968 20.3911L64.7019 10.497H59.7725L54.9621 35.708H59.8915L61.5347 27.0982C62.1777 23.8398 63.8684 21.8182 65.4401 21.8182C66.5594 21.8182 66.988 22.5793 66.988 23.6495C66.988 24.3155 66.9404 25.1717 66.7737 25.8377L64.9162 35.708H69.8457L71.7746 25.5285C71.9889 24.4582 72.1318 23.1739 72.1318 22.2939C72.108 19.4636 70.6553 17.7987 68.0596 17.7987ZM83.2766 17.7987C77.3232 17.7987 73.3939 23.1501 73.3939 29.1199C73.3939 32.9253 75.7515 36.0172 80.1808 36.0172C86.0152 36.0172 89.9445 30.8085 89.9445 24.696C89.9683 21.1522 87.9203 17.7987 83.2766 17.7987ZM80.8476 32.2593C79.1568 32.2593 78.4662 30.8323 78.4662 29.0247C78.4662 26.1944 79.9189 21.6041 82.6098 21.6041C84.3482 21.6041 84.9436 23.1263 84.9436 24.5771C84.9436 27.5977 83.4433 32.2593 80.8476 32.2593ZM102.59 17.7987C99.2556 17.7987 97.3743 20.7479 97.3743 20.7479H97.3267L97.6125 18.1079H93.2308C93.0164 19.8917 92.6116 22.6268 92.2306 24.6485L88.8252 42.7005H93.7547L95.1358 35.3988H95.2549C95.2549 35.3988 96.2789 36.041 98.1364 36.041C103.947 36.041 107.733 30.095 107.733 24.1014C107.709 20.7717 106.209 17.7987 102.59 17.7987ZM97.8744 32.3069C96.5885 32.3069 95.8264 31.5696 95.8264 31.5696L96.6361 26.9793C97.2076 23.8874 98.827 21.8657 100.542 21.8657C102.066 21.8657 102.518 23.269 102.518 24.5771C102.542 27.7642 100.637 32.3069 97.8744 32.3069ZM114.758 10.7349C113.187 10.7349 111.925 11.9954 111.925 13.5889C111.925 15.0398 112.853 16.0625 114.258 16.0625H114.306C115.854 16.0625 117.164 15.016 117.187 13.2084C117.211 11.7576 116.235 10.7349 114.758 10.7349ZM107.852 35.6842H112.782L116.116 18.1792H111.162L107.852 35.6842ZM128.689 18.1554H125.26L125.427 17.3468C125.713 15.6581 126.713 14.1835 128.38 14.1835C129.261 14.1835 129.952 14.4451 129.952 14.4451L130.904 10.5684C130.904 10.5684 130.071 10.1403 128.213 10.1403C126.475 10.1403 124.712 10.6397 123.379 11.7814C121.688 13.2084 120.902 15.2776 120.521 17.3706L120.378 18.1792H118.068L117.33 21.9133H119.64L117.021 35.708H121.95L124.57 21.9133H127.975L128.689 18.1554ZM140.572 18.1792C140.572 18.1792 137.477 25.9566 136.119 30.2139H136.072C135.976 28.8344 134.857 18.1792 134.857 18.1792H129.666L132.642 34.2096C132.69 34.5664 132.666 34.7804 132.523 35.0183C131.952 36.1361 130.976 37.2064 129.832 37.9913C128.904 38.6572 127.856 39.1091 127.022 39.3945L128.404 43.5805C129.404 43.3664 131.499 42.534 133.238 40.8929C135.476 38.7999 137.572 35.5415 139.715 31.1177L145.74 18.1554H140.572V18.1792Z" fill="black"/>
<path d="M30.9577 9.59329C30.8148 9.59329 27.6952 9.35545 27.6952 9.35545C27.6952 9.35545 25.5282 7.19111 25.2662 6.97706C25.171 6.88192 25.0519 6.83435 24.9567 6.83435L23.2183 42.653L35.7919 39.9416C35.7919 39.9416 31.3864 10.1641 31.3626 9.95005C31.2673 9.73599 31.1006 9.64086 30.9577 9.59329Z" fill="#5E8E3E"/>
</g>
<defs>
<clipPath id="clip0">
<rect width="145.74" height="45.6652" fill="white" transform="translate(0 0.484009)"/>
</clipPath>
</defs>
</svg>
