<svg width="141" height="67" viewBox="0 0 141 67" fill="none" xmlns="http://www.w3.org/2000/svg">
<path d="M75.0856 20.7537H67.5884V46.9578H75.0856V20.7537Z" fill="#32325D"/>
<path fill-rule="evenodd" clip-rule="evenodd" d="M59.5533 22.9698L59.0754 20.7536H52.6235V46.9577H60.091V29.1989C61.8533 26.8929 64.8402 27.3122 65.7662 27.6416V20.7536C64.8104 20.3943 61.3156 19.7354 59.5533 22.9698Z" fill="#32325D"/>
<path fill-rule="evenodd" clip-rule="evenodd" d="M124.4 33.9605C124.4 26.2939 120.697 20.2445 113.617 20.2445C106.509 20.2445 102.207 26.2939 102.207 33.9006C102.207 42.9148 107.285 47.4668 114.573 47.4668C118.128 47.4668 120.816 46.6582 122.847 45.5202V39.5307C120.816 40.5489 118.486 41.1778 115.529 41.1778C112.632 41.1778 110.063 40.1596 109.734 36.6258H124.341C124.341 36.2365 124.4 34.6792 124.4 33.9605ZM109.645 31.1155C109.645 27.7314 111.706 26.3239 113.588 26.3239C115.41 26.3239 117.351 27.7314 117.351 31.1155H109.645Z" fill="#32325D"/>
<path fill-rule="evenodd" clip-rule="evenodd" d="M90.6776 20.2445C87.7504 20.2445 85.8686 21.6221 84.8232 22.5804L84.4349 20.7237H77.8635V55.6425L85.3309 54.0553L85.3608 45.5801C86.4361 46.3588 88.0192 47.4668 90.6477 47.4668C95.9944 47.4668 100.863 43.1544 100.863 33.661C100.833 24.9762 95.9048 20.2445 90.6776 20.2445ZM88.8854 40.8784C87.1231 40.8784 86.0777 40.2495 85.3608 39.4708L85.3309 28.3603C86.1076 27.4918 87.1829 26.8929 88.8854 26.8929C91.6036 26.8929 93.4854 29.9475 93.4854 33.8706C93.4854 37.8836 91.6334 40.8784 88.8854 40.8784Z" fill="#32325D"/>
<path fill-rule="evenodd" clip-rule="evenodd" d="M24.4267 28.3603C24.4267 27.1923 25.3825 26.7431 26.9656 26.7431C29.2357 26.7431 32.1032 27.4319 34.3733 28.6598V21.6221C31.8941 20.6338 29.4448 20.2445 26.9656 20.2445C20.902 20.2445 16.8696 23.4189 16.8696 28.7197C16.8696 36.9852 28.2201 35.6675 28.2201 39.2312C28.2201 40.6088 27.0253 41.058 25.3526 41.058C22.8734 41.058 19.7072 40.0398 17.1982 38.6622V45.7897C19.9761 46.9876 22.7838 47.4968 25.3526 47.4968C31.5655 47.4968 35.8369 44.4122 35.8369 39.0516C35.807 30.1272 24.4267 31.7144 24.4267 28.3603Z" fill="#32325D"/>
<path fill-rule="evenodd" clip-rule="evenodd" d="M44.6186 14.255L37.3304 15.8123L37.3005 39.8003C37.3005 44.2325 40.6161 47.4968 45.0368 47.4968C47.4861 47.4968 49.2783 47.0476 50.264 46.5085V40.4292C49.3082 40.8185 44.5887 42.1961 44.5887 37.7638V27.1324H50.264V20.7536H44.5887L44.6186 14.255Z" fill="#32325D"/>
<path fill-rule="evenodd" clip-rule="evenodd" d="M67.5884 18.4776L75.0856 16.8605V10.7811L67.5884 12.3683V18.4776Z" fill="#32325D"/>
</svg>
